<svg width="324" height="72" viewBox="0 0 324 72" fill="none" xmlns="http://www.w3.org/2000/svg">
<rect x="262.61" y="34.7411" width="8.75366" height="35.2882" fill="#8B0000"/>
<rect x="185.468" y="42.4005" width="7.65945" height="21.0635" transform="rotate(-90 185.468 42.4005)" fill="#8B0000"/>
<rect x="185.468" y="70.0292" width="7.65945" height="21.0635" transform="rotate(-90 185.468 70.0292)" fill="#8B0000"/>
<rect x="185.468" y="56.6252" width="7.65945" height="17.2338" transform="rotate(-90 185.468 56.6252)" fill="#8B0000"/>
<rect x="179.176" y="34.7411" width="8.75366" height="35.2882" fill="#8B0000"/>
<path d="M35.2881 43.495H22.1572V70.0292H13.4043V43.495H0V34.7411H35.2881V43.495Z" fill="#8B0000"/>
<path d="M61.3704 34.8779L79.0569 69.8925H69.718L67.2209 64.832H49.8596L47.3625 69.8925H38.0237L55.7102 34.8779H61.3704ZM52.8303 58.8134H64.2502L58.5403 47.2441L52.8303 58.8134Z" fill="#8B0000"/>
<path d="M305.379 35.0146L323.065 70.0293H313.726L311.229 64.9688H293.868L291.371 70.0293H282.032L299.718 35.0146H305.379ZM296.839 58.9502H308.258L302.548 47.3809L296.839 58.9502Z" fill="#8B0000"/>
<path d="M102.719 33.3733C113.068 33.3733 121.457 41.7627 121.457 52.1116C121.457 55.6287 120.486 58.9186 118.801 61.7307L122.881 65.8098L116.69 72.0002L112.676 67.9856C109.791 69.799 106.378 70.8499 102.719 70.8499C92.3698 70.8498 83.9804 62.4604 83.9804 52.1116C83.9804 41.7627 92.3698 33.3733 102.719 33.3733ZM102.719 41.5803C96.7513 41.5805 91.913 46.4185 91.913 52.386C91.9135 58.3531 96.7515 63.1905 102.719 63.1907C104.239 63.1906 105.685 62.8738 106.998 62.3069L102.582 57.8909L108.771 51.7014L112.943 55.8733C113.317 54.7788 113.523 53.6068 113.523 52.386C113.523 46.4185 108.686 41.5805 102.719 41.5803Z" fill="#8B0000"/>
<path d="M140.881 52.5223C140.882 61.0565 146.807 63.2822 149.771 63.328H149.907L150.193 63.3173C153.195 63.1401 158.756 60.8628 158.929 52.9052L158.933 52.5223V34.7411H167.687V52.5223C167.777 58.6709 164.35 70.8718 150.571 71.2518L149.907 71.2606H149.77V71.2596C135.437 71.2589 132.036 58.7684 132.127 52.5223H132.125V34.7411H140.879V52.5223H140.881Z" fill="#8B0000"/>
<path d="M132.126 30.501H140.879C141.153 17.5073 134.04 17.8721 132.126 17.7809C110.652 17.0514 83.8436 16.5499 61.9595 15.3189C58.3375 15.1152 55.4261 13.1523 53.3426 9.71109C51.8069 7.17459 50.4703 4.37683 49.7865 0C48.6922 6.97557 49.7673 11.0049 50.8806 13.5408C53.3426 19.1486 57.4915 20.5164 60.3182 20.6532C82.9318 22.1121 125.971 24.2093 127.612 24.2093C131.852 24.2093 132.126 26.6713 132.126 30.501Z" fill="#8B0000"/>
<path d="M167.695 30.501H158.941C158.668 17.5073 165.78 17.8721 167.695 17.7809C189.169 17.0514 215.977 16.5499 237.861 15.3189C241.483 15.1152 244.394 13.1523 246.478 9.71109C248.014 7.17459 249.35 4.37683 250.034 0C251.128 6.97557 250.053 11.0049 248.94 13.5408C246.478 19.1486 242.329 20.5164 239.502 20.6532C216.889 22.1121 173.85 24.2093 172.209 24.2093C167.968 24.2093 167.695 26.6713 167.695 30.501Z" fill="#8B0000"/>
<path d="M232.793 34.7411C233.853 34.7411 234.867 34.9368 235.802 35.2919V34.7411C239.509 34.7411 244.254 35.8122 247.145 39.6649H247.291V39.8612C248.789 41.9517 249.753 44.8308 249.753 48.7528C249.753 54.4882 246.492 57.8738 243.034 59.7577L250.847 70.0292H240.414L234.315 61.8231H228.416V70.0292H219.662V34.7411H232.793ZM228.416 53.3427H235.255C236.896 53.3407 240.179 52.5808 240.179 48.4813C240.179 44.6373 237.533 43.3775 235.625 43.2352L235.255 43.2216H228.416V53.3427ZM235.255 53.3427H236.121L236.126 53.3407L235.255 53.3427Z" fill="#8B0000"/>
</svg>
