<svg width="987" height="220" viewBox="0 0 987 220" fill="none" xmlns="http://www.w3.org/2000/svg">
  <style>
    @keyframes fadeToRed {
      0% {
        fill: white;
      }
      100% {
        fill: #8B0000; /* Updated to match theme color */
      }
    }
    rect, path {
      animation: fadeToRed 1.5s ease-in forwards;
      fill: white; /* Start with white */
    }
  </style>
<rect x="802.303" y="106.138" width="26.7434" height="107.809" fill="#8B0000"/>
<rect x="566.627" y="129.539" width="23.4005" height="64.3514" transform="rotate(-90 566.627 129.539)" fill="#8B0000"/>
<rect x="566.627" y="213.948" width="23.4005" height="64.3514" transform="rotate(-90 566.627 213.948)" fill="#8B0000"/>
<rect x="566.627" y="172.997" width="23.4005" height="52.6511" transform="rotate(-90 566.627 172.997)" fill="#8B0000"/>
<rect x="547.405" y="106.138" width="26.7434" height="107.809" fill="#8B0000"/>
<path fill-rule="evenodd" clip-rule="evenodd" d="M107.809 132.881V106.138H67.6943H40.9509L0 106.138V132.881L40.9509 132.881V213.947H67.6943V132.881L107.809 132.881Z" fill="#8B0000"/>
<path fill-rule="evenodd" clip-rule="evenodd" d="M116.167 213.53L170.201 106.556H178.847L187.492 106.556L241.527 213.53H212.996L205.366 198.069H152.328L144.697 213.53H116.167ZM196.292 179.683L178.847 144.336L161.402 179.683H196.292Z" fill="#8B0000"/>
<path fill-rule="evenodd" clip-rule="evenodd" d="M932.966 106.974L987 213.947H958.47L950.839 198.486H897.801L890.17 213.948H861.64L915.675 106.974L924.32 106.974H932.966ZM941.765 180.1H906.875L924.32 144.754L941.765 180.1Z" fill="#8B0000"/>
<path fill-rule="evenodd" clip-rule="evenodd" d="M344.244 207.708C335.43 213.25 324.998 216.455 313.818 216.455C282.201 216.455 256.57 190.824 256.57 159.207C256.57 127.59 282.201 101.959 313.818 101.959C345.435 101.959 371.065 127.59 371.065 159.207C371.065 169.953 368.105 180.007 362.955 188.598L375.415 201.058L356.504 219.968L344.244 207.708ZM345.067 170.711C346.209 167.364 346.829 163.776 346.829 160.043C346.829 141.811 332.049 127.031 313.818 127.031C295.586 127.031 280.806 141.811 280.806 160.043C280.806 178.274 295.586 193.054 313.818 193.054C318.464 193.054 322.887 192.094 326.897 190.362L313.4 176.864L332.31 157.953L345.067 170.711Z" fill="#8B0000"/>
<path fill-rule="evenodd" clip-rule="evenodd" d="M403.659 106.138H430.402V160.461H403.659V106.138ZM485.561 106.138H512.304V160.461C512.583 179.543 501.774 217.708 457.981 217.708V193.472C467.035 193.333 485.561 186.535 485.561 160.461V106.138ZM403.664 160.461C403.386 179.543 413.777 217.708 457.569 217.708L457.981 217.708V193.472H457.567C448.513 193.332 430.408 186.534 430.408 160.461H403.664Z" fill="#8B0000"/>
<path d="M403.659 93.1842H430.402C431.238 53.4869 409.509 54.6012 403.659 54.3226C338.054 52.094 256.152 50.5618 189.293 46.801C178.228 46.1786 169.333 40.182 162.968 29.6685C158.276 21.9192 154.193 13.3717 152.103 0C148.76 21.3112 152.045 33.6214 155.446 41.3688C162.968 58.5013 175.643 62.6799 184.279 63.0978C253.366 67.555 384.855 73.9623 389.869 73.9623C402.823 73.9623 403.659 81.4839 403.659 93.1842Z" fill="#8B0000"/>
<path d="M512.328 93.1842H485.584C484.748 53.4869 506.477 54.6012 512.328 54.3226C577.933 52.094 659.834 50.5618 726.693 46.801C737.758 46.1786 746.653 40.182 753.018 29.6685C757.71 21.9192 761.794 13.3717 763.883 0C767.226 21.3112 763.941 33.6214 760.54 41.3688C753.018 58.5013 740.343 62.6799 731.707 63.0978C662.62 67.555 531.132 73.9623 526.117 73.9623C513.163 73.9623 512.328 81.4839 512.328 93.1842Z" fill="#8B0000"/>
<path fill-rule="evenodd" clip-rule="evenodd" d="M671.093 106.138H690.315H697.837H717.116C718.235 106.138 719.332 106.23 720.401 106.407V106.138C731.728 106.138 746.23 109.409 755.063 121.181H755.502V121.78C760.079 128.167 763.024 136.963 763.024 148.947C763.024 166.468 753.068 176.822 742.505 182.578L766.367 213.947H763.024H737.836H734.494L715.86 188.876H697.837L697.837 213.947H671.093V106.138ZM721.39 162.965L718.73 162.968C723.744 162.962 733.773 160.641 733.773 148.115C733.773 135.594 724.588 132.049 718.737 132.046L718.73 132.046H697.837L697.837 162.968H700.344H718.73H720.401H721.376L721.39 162.965Z" fill="#8B0000"/>
</svg>
